<svg width="15" height="20" viewBox="0 0 15 20" fill="none" xmlns="http://www.w3.org/2000/svg">
<path d="M7.05026 0.769226C3.15501 0.769226 9.82646e-06 3.68315 9.82646e-06 7.27715C-0.0025342 8.68086 0.488961 10.0474 1.40051 11.1709L5.92276 18.4014C5.94901 18.448 5.97526 18.4944 6.00751 18.5371L6.01751 18.553L6.02026 18.5516C6.13794 18.7031 6.29319 18.8263 6.47304 18.9111C6.65288 18.9958 6.85209 19.0396 7.05401 19.0388C7.44301 19.0388 7.78201 18.8754 8.01526 18.6236L8.02701 18.6298L8.07176 18.5583C8.13776 18.4761 8.19626 18.3885 8.23851 18.2918L12.669 11.2076C13.5998 10.0776 14.1028 8.6967 14.1005 7.27715C14.1005 3.68315 10.9455 0.769226 7.05026 0.769226ZM6.98051 10.5765C5.06126 10.5765 3.50676 9.14084 3.50676 7.36992C3.50676 5.599 5.06126 4.16338 6.98051 4.16338C8.89976 4.16338 10.4543 5.59923 10.4543 7.36992C10.4543 9.14061 8.89976 10.5765 6.98051 10.5765Z" fill="#3C3636"/>
</svg>
