<svg width="32" height="32" viewBox="0 0 32 32" fill="none" xmlns="http://www.w3.org/2000/svg">
<g filter="url(#filter0_d_5_57)">
<path fill-rule="evenodd" clip-rule="evenodd" d="M10.6667 5.33333C10.6667 3.91885 11.2286 2.56229 12.2288 1.5621C13.229 0.561903 14.5855 0 16 0C17.4145 0 18.771 0.561903 19.7712 1.5621C20.7714 2.56229 21.3333 3.91885 21.3333 5.33333C21.3333 6.74782 20.7714 8.10438 19.7712 9.10457C18.771 10.1048 17.4145 10.6667 16 10.6667C14.5855 10.6667 13.229 10.1048 12.2288 9.10457C11.2286 8.10438 10.6667 6.74782 10.6667 5.33333ZM10.6667 13.3333C8.89856 13.3333 7.20286 14.0357 5.95262 15.286C4.70238 16.5362 4 18.2319 4 20C4 21.0609 4.42143 22.0783 5.17157 22.8284C5.92172 23.5786 6.93913 24 8 24H24C25.0609 24 26.0783 23.5786 26.8284 22.8284C27.5786 22.0783 28 21.0609 28 20C28 18.2319 27.2976 16.5362 26.0474 15.286C24.7971 14.0357 23.1014 13.3333 21.3333 13.3333H10.6667Z" fill="#3C3636"/>
</g>
<defs>
<filter id="filter0_d_5_57" x="0" y="0" width="32" height="32" filterUnits="userSpaceOnUse" color-interpolation-filters="sRGB">
<feFlood flood-opacity="0" result="BackgroundImageFix"/>
<feColorMatrix in="SourceAlpha" type="matrix" values="0 0 0 0 0 0 0 0 0 0 0 0 0 0 0 0 0 0 127 0" result="hardAlpha"/>
<feOffset dy="4"/>
<feGaussianBlur stdDeviation="2"/>
<feComposite in2="hardAlpha" operator="out"/>
<feColorMatrix type="matrix" values="0 0 0 0 0 0 0 0 0 0 0 0 0 0 0 0 0 0 0.25 0"/>
<feBlend mode="normal" in2="BackgroundImageFix" result="effect1_dropShadow_5_57"/>
<feBlend mode="normal" in="SourceGraphic" in2="effect1_dropShadow_5_57" result="shape"/>
</filter>
</defs>
</svg>
